# xmcd
#
# Track frame offsets:
#	182
#	13445
#	43120
#	55932
#	80770
#	92982
#	121077
#	146267
#	165375
#	169315
#	184440
#	203125
#	225890
#	238777
#	249190
#
# Disc length: 3942 seconds
#
# Revision: 0
# Processed by: cddbd v1.5.2PL0 Copyright (c) Steve Scherf et al.
# Submitted via: EasyCDDAExtractor 16.0.9.1
#
DISCID=c70f640f
DTITLE=THE ACADEMY OF ANCIENT MUSIC - HANDEL MESSIAH CD1
DYEAR=1980
DGENRE=Opera
TTITLE0=Part I - Sinfony
TTITLE1=Comfort ye my people - Every valley shall be exalted (tenor)
TTITLE2=And the glory of the Lord (chorus)
TTITLE3=Thus saith the Lord (bass) - But who may abide the day of his coming? 
TTITLE3=(soprano 2)
TTITLE4=And he shall purify (chorus)
TTITLE5=Behold, a virgin shall conceive - O thou that tellest good tidings to 
TTITLE5=Zion (alto)
TTITLE6=For behold, darkness shall cover the earth - The people that walked in
TTITLE6=darkness (bass)
TTITLE7=For unto us a child is born (chorus)
TTITLE8=Pifa
TTITLE9=There were shepherds, abinding in the field (soprano 1)
TTITLE10=Rejoice greatly, O daughter of Zion (soprano 1)
TTITLE11=Then shall the eyes of the blind - He shall feed his flock (soprano 1
TTITLE11=)
TTITLE12=His yoke is easy, and his burden is light (chorus)
TTITLE13=Part II - Behold the Lamb of God (chorus)
TTITLE14=He was despised (alto)
EXTD=YEAR: 1980\n
EXTT0=
EXTT1=
EXTT2=
EXTT3=
EXTT4=
EXTT5=
EXTT6=
EXTT7=
EXTT8=
EXTT9=
EXTT10=
EXTT11=
EXTT12=
EXTT13=
EXTT14=
PLAYORDER=
